<svg width="26" height="26" xmlns="http://www.w3.org/2000/svg" xmlns:xlink="http://www.w3.org/1999/xlink"><defs><path d="M843 244c0 7.17-5.83 13-13 13s-13-5.83-13-13 5.83-13 13-13 13 5.83 13 13zm-13 12.13c3.04 0 5.82-1.12 7.96-2.98-.45-.7-2.6-1.93-5.42-3.07-.86-.35-1-1.85-1-2.72 0-.14.06-.26.17-.35.2-.15.4-.4.62-.76l.23-.36c.25-.4.47-.74.66-1.25a.43.43 0 0 1 .35-.28.3.3 0 0 0 .13-.13c.36-.65.5-1.6.46-1.86h-.05a.43.43 0 0 1-.42-.46c.08-2.16-.76-3.75-2.31-4.37-.34-.15-.89-.36-1.64-.57a2.2 2.2 0 0 1-.71-.34c-.04.08-.07.16-.06.2l-.36.23-.03.43s-.47 0-.76.16c.06.17.02.36-.12.48-.66.57-1.43 1.7-1.35 3.78a.44.44 0 0 1-.44.45h-.08a4 4 0 0 0 .46 1.87c.04.07.11.12.13.12.18 0 .33.12.39.29.19.51.4.85.66 1.25l.21.34c.23.38.45.63.7.8.11.08.18.22.18.37-.03.89-.2 2.42-1.1 2.7-1.44.42-4.91 2.07-5.4 3.06a12.08 12.08 0 0 0 7.94 2.97zM842.13 244c0-6.69-5.44-12.13-12.13-12.13a12.15 12.15 0 0 0-8.6 20.69c1.13-1.55 5.22-3.12 5.81-3.3.17-.05.42-.7.47-1.67-.26-.22-.5-.52-.74-.9l-.2-.33c-.23-.36-.46-.72-.66-1.21-.23-.1-.43-.28-.55-.5-.4-.74-.71-2.04-.5-2.61a.78.78 0 0 1 .45-.47 5.44 5.44 0 0 1 1.25-3.7c0-.06 0-.13.02-.19.2-.7.86-.95 1.37-1.03.01-.1.04-.2.08-.3.12-.28.42-.74.76-.8a.43.43 0 0 1 .52.35c.01 0 .17.15.49.23.8.23 1.39.46 1.74.61 1.78.7 2.83 2.5 2.85 4.85.2.1.34.24.4.45.2.57-.1 1.89-.5 2.6-.11.22-.3.4-.5.5-.2.49-.44.86-.67 1.22l-.22.34c-.22.36-.43.64-.66.85.03.97.25 1.64.45 1.72 1.83.74 4.78 2.08 5.73 3.3a12.1 12.1 0 0 0 3.54-8.57z" id="a"/></defs><path fill="none" d="M-1-1h582v402H-1z"/><use x="-817" y="-231" xlink:href="#a" fill="#95a5a6"/></svg>