<svg xmlns="http://www.w3.org/2000/svg" xmlns:xlink="http://www.w3.org/1999/xlink" width="25" height="24" viewBox="0 0 25 24"><defs><path id="fetra" d="M823.73 365.36a3.37 3.37 0 1 1-6.73-.01 3.37 3.37 0 0 1 6.73.01zm-.96 0a2.4 2.4 0 1 0-4.81.01 2.4 2.4 0 0 0 4.8-.01zm10.1 0a3.37 3.37 0 1 1-6.74-.01 3.37 3.37 0 0 1 6.74.01zm-.97 0a2.4 2.4 0 1 0-4.8.01 2.4 2.4 0 0 0 4.8-.01zm3.37 0a3.37 3.37 0 1 1 6.73.01 3.37 3.37 0 0 1-6.73-.01zm.96 0a2.4 2.4 0 1 0 4.81-.01 2.4 2.4 0 0 0-4.8.01zm-12.5 8.64a3.37 3.37 0 1 1-6.73-.01 3.37 3.37 0 0 1 6.73.01zm-.96 0a2.4 2.4 0 1 0-4.81.01 2.4 2.4 0 0 0 4.8-.01zm10.1 0a3.37 3.37 0 1 1-6.74-.01 3.37 3.37 0 0 1 6.74.01zm-.97 0a2.4 2.4 0 1 0-4.8.01 2.4 2.4 0 0 0 4.8-.01zm10.1 0a3.37 3.37 0 1 1-6.73-.01 3.37 3.37 0 0 1 6.73.01zm-.96 0a2.4 2.4 0 1 0-4.81.01 2.4 2.4 0 0 0 4.8-.01zm-17.3 8.64a3.37 3.37 0 1 1-6.74-.01 3.37 3.37 0 0 1 6.73.01zm-.97 0a2.4 2.4 0 1 0-4.81.01 2.4 2.4 0 0 0 4.8-.01zm10.1 0a3.37 3.37 0 1 1-6.74-.01 3.37 3.37 0 0 1 6.74.01zm-.97 0a2.4 2.4 0 1 0-4.8.01 2.4 2.4 0 0 0 4.8-.01zm10.1 0a3.37 3.37 0 1 1-6.73-.01 3.37 3.37 0 0 1 6.73.01zm-.96 0a2.4 2.4 0 1 0-4.81.01 2.4 2.4 0 0 0 4.8-.01z"/></defs><g><g transform="translate(-817 -362)"><use fill="#95a5a6" xlink:href="#fetra"/></g></g></svg>