<svg xmlns="http://www.w3.org/2000/svg" xmlns:xlink="http://www.w3.org/1999/xlink" width="34" height="29" viewBox="0 0 34 29"><defs><path id="n7fpa" d="M844.59 315.87l-15.23 3.7a3.67 3.67 0 1 1-7.27.78c0-1.35.75-2.53 1.84-3.16l-5.35-19.82c-.12-.43-.41-.8-.82-1.02a1.7 1.7 0 0 0-1.3-.15l-4.72 1.36a.57.57 0 1 1-.32-1.1l4.72-1.36a2.85 2.85 0 0 1 3.55 1.96l5.32 19.71a3.7 3.7 0 0 1 3.93 1.72l15.37-3.73c.3-.08.62.11.7.42.07.3-.11.61-.42.69zm-16.29 4.48a2.52 2.52 0 0 0-5.06 0 2.52 2.52 0 0 0 5.06 0zm-4.34-17.04a.57.57 0 0 1 .4-.7l13.14-3.36c.3-.08.61.1.7.4l3.52 12.5a.57.57 0 0 1-.4.7l-13.14 3.35a.58.58 0 0 1-.7-.4zm8.9-1.7l-2.68.69.61 1.92 2.6-.68zm-7.64 1.95l3.22 11.4 12.02-3.07-3.22-11.4-3.26.84.68 2.47a.57.57 0 0 1-.4.7l-3.7.96a.57.57 0 0 1-.7-.38l-.8-2.5z"/></defs><g><g transform="translate(-811 -295)"><use fill="#95a5a6" xlink:href="#n7fpa"/></g></g></svg>