<svg xmlns="http://www.w3.org/2000/svg" xmlns:xlink="http://www.w3.org/1999/xlink" width="33" height="31" viewBox="0 0 33 31"><defs><path id="xeg0a" d="M843.95 170.75l-4.4 10.69a.55.55 0 0 1-.5.33h-15.78l.5 1.95c0 .03.41 1.8 1.66 1.8h13.06c.3 0 .55.24.55.53 0 .3-.25.54-.55.54h-13.06c-2.14 0-2.71-2.53-2.73-2.63l-4.95-19.3c-.41-1.59-1.5-1.6-1.64-1.6h-4.56a.54.54 0 0 1-.55-.53c0-.3.25-.53.55-.53h4.54c.69-.05 2.2.4 2.73 2.4l1.44 5.63.09-.02h23.09c.18 0 .35.1.45.24.1.15.13.33.06.5zm-1.32.33h-22.1l2.47 9.64.1-.01h15.57zM826.12 193a2.99 2.99 0 0 1-3.02-2.94 2.99 2.99 0 0 1 3.02-2.94 2.99 2.99 0 0 1 3.02 2.94 2.99 2.99 0 0 1-3.02 2.94zm0-4.81a1.9 1.9 0 0 0-1.92 1.87 1.9 1.9 0 0 0 1.92 1.87 1.9 1.9 0 0 0 1.92-1.87 1.9 1.9 0 0 0-1.92-1.87zm10.45 4.81a2.99 2.99 0 0 1-3.03-2.94 2.99 2.99 0 0 1 3.03-2.94 2.99 2.99 0 0 1 3.02 2.94 2.99 2.99 0 0 1-3.02 2.94zm0-4.81a1.9 1.9 0 0 0-1.93 1.87 1.9 1.9 0 0 0 1.93 1.87 1.9 1.9 0 0 0 1.92-1.87 1.9 1.9 0 0 0-1.92-1.87z"/></defs><g><g transform="translate(-811 -162)"><use fill="#2ecc71" xlink:href="#xeg0a"/></g></g></svg>