<svg width="26" height="26" xmlns="http://www.w3.org/2000/svg" xmlns:xlink="http://www.w3.org/1999/xlink">
 <defs>
  <path d="m843,244c0,7.169998 -5.830017,13 -13,13s-13,-5.830002 -13,-13s5.830017,-13 13,-13s13,5.830002 13,13zm-13,12.130005c3.039978,0 5.820007,-1.12001 7.960022,-2.980011c-0.450012,-0.699997 -2.600037,-1.929993 -5.420044,-3.069992c-0.859985,-0.350006 -1,-1.850006 -1,-2.720001c0,-0.139999 0.059998,-0.259995 0.170044,-0.350006c0.199951,-0.149994 0.399963,-0.399994 0.619995,-0.759995l0.22998,-0.360001c0.25,-0.399994 0.470032,-0.740005 0.659973,-1.25a0.43,0.43 0 0 1 0.350037,-0.279999a0.3,0.3 0 0 0 0.130005,-0.130005c0.359985,-0.649994 0.5,-1.599991 0.459961,-1.860001l-0.049988,0a0.43,0.43 0 0 1 -0.419983,-0.459991c0.080017,-2.160004 -0.76001,-3.75 -2.309998,-4.37001c-0.340027,-0.149994 -0.890015,-0.360001 -1.640015,-0.569992a2.2,2.2 0 0 1 -0.709961,-0.339996c-0.040039,0.080002 -0.070007,0.159988 -0.060059,0.199997l-0.359985,0.229996l-0.029968,0.430008s-0.470032,0 -0.76001,0.159988c0.059998,0.170013 0.02002,0.360001 -0.119995,0.480011c-0.660034,0.569992 -1.429993,1.699997 -1.350037,3.779999a0.44,0.44 0 0 1 -0.440002,0.449997l-0.079956,0a4,4 0 0 0 0.459961,1.869995c0.040039,0.070007 0.110046,0.12001 0.130005,0.12001c0.179993,0 0.330017,0.119995 0.390015,0.289993c0.190002,0.509995 0.400024,0.850006 0.659973,1.25l0.210022,0.339996c0.22998,0.380005 0.450012,0.630005 0.700012,0.800003c0.109985,0.080002 0.179993,0.220001 0.179993,0.369995c-0.029968,0.889999 -0.200012,2.420013 -1.099976,2.700012c-1.440002,0.419998 -4.910034,2.069992 -5.400024,3.059998a12.08,12.08 0 0 0 7.940002,2.970001zm12.130005,-12.130005c0,-6.690002 -5.440002,-12.130005 -12.130005,-12.130005a12.15,12.15 0 0 0 -8.599976,20.690002c1.130005,-1.550003 5.219971,-3.119995 5.809998,-3.300003c0.169983,-0.049988 0.419983,-0.699997 0.469971,-1.669998c-0.26001,-0.220001 -0.5,-0.519989 -0.73999,-0.899994l-0.200012,-0.330002c-0.22998,-0.360001 -0.459961,-0.720001 -0.659973,-1.210007c-0.230042,-0.099991 -0.429993,-0.279999 -0.549988,-0.5c-0.400024,-0.73999 -0.710022,-2.039993 -0.5,-2.610001a0.78,0.78 0 0 1 0.449951,-0.469986a5.44,5.44 0 0 1 1.25,-3.700012c0,-0.059998 0,-0.12999 0.02002,-0.190002c0.200012,-0.699997 0.859985,-0.949997 1.369995,-1.029999c0.01001,-0.099991 0.039978,-0.199997 0.080017,-0.299988c0.119995,-0.279999 0.419983,-0.740005 0.76001,-0.800003a0.43,0.43 0 0 1 0.519958,0.349991c0.01001,0 0.170044,0.150009 0.48999,0.230011c0.800049,0.229996 1.390015,0.459991 1.740051,0.610001c1.779968,0.699997 2.829956,2.5 2.849976,4.849991c0.200012,0.100006 0.340027,0.240005 0.400024,0.449997c0.199951,0.570007 -0.100037,1.889999 -0.5,2.600006c-0.110046,0.220001 -0.300049,0.399994 -0.5,0.5c-0.200012,0.490005 -0.440002,0.860001 -0.670044,1.220001l-0.219971,0.339996c-0.220032,0.360001 -0.429993,0.639999 -0.660034,0.850006c0.030029,0.970001 0.25,1.639999 0.450012,1.720001c1.830017,0.73999 4.780029,2.080002 5.730042,3.300003a12.1,12.1 0 0 0 3.539978,-8.570007z" id="tapja"/>
 </defs>
 <g>
  <title>background</title>
  <rect fill="none" id="canvas_background" height="402" width="582" y="-1" x="-1"/>
 </g>
 <g>
  <title>Layer 1</title>
  <g id="svg_1">
   <g id="svg_2">
    <use id="svg_3" x="-817" y="-231" xlink:href="#tapja" fill="#95a5a6"/>
   </g>
  </g>
 </g>
</svg>